<svg width="60" height="60" viewBox="0 0 60 60" fill="none" xmlns="http://www.w3.org/2000/svg">
<rect x="1" y="1" width="58" height="58" rx="13" fill="#6EC2FF" stroke="black" stroke-width="2"/>
<path d="M28.1747 15.7402H26.1775C26.0995 15.7402 26.0215 15.7162 25.9496 15.6803C25.7037 15.5363 25.3018 15.2424 25.0979 14.7387C24.7801 13.947 25.1099 12.8314 25.8956 12.1237C25.9796 12.0458 26.0875 12.0098 26.1955 12.0098C30.6156 11.9738 34.9998 12.0518 39.42 12.0098C39.5759 12.0338 39.9897 12.1297 40.3016 12.4896C40.7094 12.9634 40.6854 14.4748 40.4575 14.8586C40.1277 15.4044 39.7858 15.5843 39.5999 15.6863C39.5339 15.7222 39.468 15.7402 39.396 15.7402C38.6463 15.7462 37.8726 15.7342 37.1169 15.7402C36.913 15.7402 36.7391 15.8842 36.6971 16.0821C34.586 25.3422 32.5528 34.3085 30.4417 43.5627C30.3817 43.8325 30.5856 44.0964 30.8675 44.0964H32.8047C32.8647 44.0964 32.9187 44.1084 32.9727 44.1324C33.2066 44.2284 33.7163 44.4923 33.9682 45.062C34.1602 45.4998 34.1062 45.8957 34.0762 46.1056C33.9323 47.0472 33.2425 47.6769 32.9187 47.9228C32.8407 47.9648 32.7507 47.9948 32.6608 47.9948C28.4925 48.0128 24.2883 47.9768 20.12 47.9948C19.9401 47.9228 19.7002 47.7969 19.4783 47.569C18.9085 46.9632 18.9925 46.1356 19.0225 45.9137C19.1664 44.9541 19.9401 44.4263 20.234 44.2584C20.2999 44.2224 20.3719 44.2044 20.4439 44.2044H22.2551C22.459 44.2044 22.639 44.0604 22.6809 43.8625C24.6541 34.6684 26.6273 25.4682 28.6005 16.274C28.6605 15.9981 28.4505 15.7402 28.1747 15.7402Z" fill="black"/>
</svg>
