<svg width="44" height="60" viewBox="0 0 44 60" fill="none" xmlns="http://www.w3.org/2000/svg">
<mask id="path-1-inside-1_207_1047" fill="white">
<path d="M0 0H30C37.732 0 44 6.26801 44 14V46C44 53.732 37.732 60 30 60H0V0Z"/>
</mask>
<path d="M0 0H30C37.732 0 44 6.26801 44 14V46C44 53.732 37.732 60 30 60H0V0Z" fill="#6EC2FF"/>
<path d="M0 -2H30C38.8366 -2 46 5.16344 46 14H42C42 7.37258 36.6274 2 30 2H0V-2ZM46 46C46 54.8366 38.8366 62 30 62H0V58H30C36.6274 58 42 52.6274 42 46H46ZM0 60V0V60ZM30 -2C38.8366 -2 46 5.16344 46 14V46C46 54.8366 38.8366 62 30 62V58C36.6274 58 42 52.6274 42 46V14C42 7.37258 36.6274 2 30 2V-2Z" fill="black" mask="url(#path-1-inside-1_207_1047)"/>
<path d="M30.1236 20.9859C29.6078 20.4701 28.8941 19.6364 28.3723 19.1146C26.543 17.2853 24.7197 15.462 22.8904 13.6327C22.3506 13.0929 21.8108 12.5531 21.271 12.0133C14.2178 12.0613 7.04729 11.952 0 12C0 12 0 11.9995 0 14.4995V46.9995C0 47.9995 0 47.9995 0 47.9995H28.2104C29.3739 47.9995 30.3276 47.0459 30.3276 45.8823C30.1956 37.4795 30.2556 29.3887 30.1236 20.9859ZM0.638984 45.0666C0.680968 35.1164 0.728949 25.1663 0.770933 15.2161C6.97854 15.2341 13.1862 15.2461 19.3938 15.2641C19.3938 16.8715 19.3938 18.4789 19.3938 20.0922C19.4118 20.2422 19.5197 21.0039 20.2035 21.5377C20.7912 21.9935 21.421 21.9935 21.6009 21.9875C23.2683 22.0175 24.9356 22.0475 26.609 22.0775C26.615 29.7425 26.621 37.4076 26.633 45.0786C17.9723 45.0666 9.30565 45.0666 0.638984 45.0666Z" fill="black"/>
<path d="M22.2665 26.6421H4.51936C4.05754 26.6421 3.67969 26.2642 3.67969 25.8024V24.369C3.67969 23.9072 4.05754 23.5293 4.51936 23.5293H22.2665C22.7284 23.5293 23.1062 23.9072 23.1062 24.369V25.8024C23.1122 26.2642 22.7284 26.6421 22.2665 26.6421Z" fill="black"/>
<path d="M22.2665 33.437H4.51936C4.05754 33.437 3.67969 33.0592 3.67969 32.5973V31.1639C3.67969 30.7021 4.05754 30.3242 4.51936 30.3242H22.2665C22.7284 30.3242 23.1062 30.7021 23.1062 31.1639V32.5973C23.1122 33.0532 22.7284 33.437 22.2665 33.437Z" fill="black"/>
<path d="M16.3468 40.2271H4.51936C4.05754 40.2271 3.67969 39.8492 3.67969 39.3874V37.9539C3.67969 37.4921 4.05754 37.1143 4.51936 37.1143H16.3468C16.8086 37.1143 17.1865 37.4921 17.1865 37.9539V39.3874C17.1865 39.8492 16.8086 40.2271 16.3468 40.2271Z" fill="black"/>
</svg>
