<svg width="60" height="60" viewBox="0 0 60 60" fill="none" xmlns="http://www.w3.org/2000/svg">
<rect x="1" y="1" width="58" height="58" rx="13" fill="#6EC2FF" stroke="black" stroke-width="2"/>
<path d="M35.5776 40.2125C35.1962 40.2065 34.8209 40.1944 34.4396 40.1883C31.6974 32.652 28.9553 25.1157 26.2192 17.5854C26.189 17.4643 26.1163 17.2767 25.9408 17.1556C25.7894 17.0527 25.6321 17.0466 25.5534 17.0466C25.2083 17.0345 24.264 17.0164 22.9868 17.0103C22.9505 17.0043 22.6781 16.9558 22.4601 17.1374C22.2967 17.2767 22.2604 17.4522 22.2483 17.5067C19.5122 25.0612 16.7761 32.6157 14.04 40.1702C13.6647 40.1823 13.2894 40.1944 12.9141 40.2065C12.3572 40.4184 11.994 40.9571 12.0001 41.5443C12.0061 42.1496 12.4056 42.6944 12.9868 42.882C15.1357 42.882 17.2846 42.882 19.4396 42.882C20.0146 42.6157 20.3657 42.0346 20.3233 41.4353C20.2689 40.6423 19.5546 40.2549 19.5122 40.2368C18.8887 40.2125 18.2652 40.1883 17.6417 40.1641C18.1805 38.3663 18.7253 36.5685 19.264 34.7706C21.988 34.7706 24.718 34.7706 27.442 34.7706C28.0352 36.5745 28.6224 38.3784 29.2156 40.1823C28.7192 40.1823 28.2289 40.1823 27.7325 40.1823C27.1756 40.4728 26.8488 41.06 26.9154 41.6653C27.0001 42.4765 27.7507 42.8397 27.787 42.8578C30.402 42.8518 33.0231 42.8397 35.6381 42.8336C36.189 42.652 36.5643 42.1496 36.5885 41.5927C36.6067 40.9692 36.195 40.3941 35.5776 40.2125ZM20.1902 31.9922C21.2676 28.784 22.3391 25.5757 23.4166 22.3675C24.4577 25.5757 25.4928 28.784 26.534 31.9922C24.4214 31.9922 22.3028 31.9922 20.1902 31.9922Z" fill="black"/>
<path d="M47.4416 40.4849C47.1692 40.4849 46.9028 40.4849 46.6305 40.4849C43.4888 31.2415 41.2249 24.5587 41.1462 24.2742C41.1341 24.2379 41.0978 24.0684 40.9525 23.9655C40.8496 23.8928 40.7346 23.8868 40.6801 23.8868C40.4379 23.8807 39.766 23.8626 38.8641 23.8626C38.8399 23.8565 38.6462 23.8202 38.4888 23.9534C38.3738 24.0502 38.3435 24.1834 38.3375 24.2197C36.8786 28.2694 35.4198 32.3129 33.9609 36.3626C34.312 37.2766 34.6631 38.1846 35.0142 39.0987C35.4319 39.0987 35.8496 39.0987 36.2672 39.0987L36.5941 38.2149L36.921 37.3311C36.9331 37.3311 39.4149 37.3432 39.4271 37.3432C39.4392 37.3432 41.921 37.3553 41.9331 37.3553C42.2842 38.4146 42.6353 39.4679 42.9924 40.5272C42.7321 40.5272 42.4658 40.5272 42.2055 40.5272C41.6425 40.6059 41.2067 41.066 41.1583 41.6168C41.1099 42.1979 41.4973 42.7427 42.0723 42.888C43.7975 42.8759 45.5953 42.8578 47.3266 42.8456C47.8048 42.5733 48.0167 42.0769 47.9985 41.5502C47.9743 40.9147 47.5082 40.5394 47.4416 40.4849ZM37.8048 35.0611C38.4646 33.0514 39.1244 31.0478 39.7902 29.0381C40.4258 31.0478 41.0675 33.0514 41.7031 35.0611C40.4016 35.0611 39.1062 35.0611 37.8048 35.0611Z" fill="black"/>
</svg>
