<svg width="60" height="60" viewBox="0 0 60 60" fill="none" xmlns="http://www.w3.org/2000/svg">
<rect x="1" y="1" width="58" height="58" rx="13" fill="#6EC2FF" stroke="black" stroke-width="2"/>
<path d="M44.436 13H15.564C13.602 13 12 14.608 12 16.564V43.006C12 44.968 13.602 46.57 15.564 46.57H44.436C46.398 46.57 48 44.968 48 43.006V16.564C48 14.608 46.398 13 44.436 13ZM37.86 29.572C37.758 29.506 37.452 29.32 37.026 29.344C36.69 29.362 36.45 29.5 36.342 29.572C35.202 30.784 34.068 31.996 32.928 33.214C30.756 30.688 28.578 28.156 26.406 25.63C26.238 25.516 25.734 25.216 25.038 25.252C24.474 25.282 24.072 25.516 23.898 25.63C21.216 28.486 18.54 31.342 15.858 34.198C15.816 28.336 15.768 22.468 15.714 16.606C25.146 16.63 34.572 16.654 44.004 16.684C44.082 23.182 44.154 29.68 44.232 36.178C42.108 33.97 39.984 31.774 37.86 29.572Z" fill="black"/>
</svg>
