<svg width="60" height="60" viewBox="0 0 60 60" fill="none" xmlns="http://www.w3.org/2000/svg">
<rect x="1" y="1" width="58" height="58" rx="13" fill="#6EC2FF" stroke="black" stroke-width="2"/>
<path d="M34.2488 12H24.8708C23.3648 12 22.1348 13.206 22.1348 14.676V39.9417C22.1348 41.4117 23.3648 42.6177 24.8708 42.6177H42.9968C44.5028 42.6177 45.7328 41.4117 45.7328 39.9417V23.8679C41.9048 19.9079 38.0768 15.954 34.2488 12ZM36.0248 18.3899C37.3028 19.7279 38.5748 21.0599 39.8528 22.3979C38.5568 22.4219 37.2668 22.4459 35.9708 22.4759C35.9888 21.1139 36.0068 19.7519 36.0248 18.3899ZM42.4988 39.5457H24.9608V15.51H32.6648C32.6888 18.3119 32.7188 21.1079 32.7428 23.9099C32.7848 24.1319 32.9048 24.5759 33.2588 25.0139C33.6608 25.5059 34.1408 25.7159 34.3568 25.7939C37.0688 25.7939 39.7868 25.7939 42.4988 25.7939V39.5457Z" fill="black"/>
<path d="M35.37 42.4743V44.8623H17.826V20.2745H22.2V16.6865H17.736C16.23 16.6865 15 17.9165 15 19.4225V45.2643C15 46.7702 16.23 48.0002 17.736 48.0002H35.862C37.368 48.0002 38.598 46.7702 38.598 45.2643V42.4623L35.37 42.4743Z" fill="black"/>
</svg>
