<svg width="60" height="60" viewBox="0 0 60 60" fill="none" xmlns="http://www.w3.org/2000/svg">
<rect x="1" y="1" width="58" height="58" rx="13" fill="#6EC2FF" stroke="black" stroke-width="2"/>
<path d="M41.8868 26.1877L38.903 23.204C38.7349 23.0359 38.4587 23.0359 38.2846 23.204L22.1351 39.5934C21.967 39.7675 21.6908 39.7675 21.5167 39.5934L19.3314 37.4082C19.1633 37.2401 19.1633 36.9699 19.3254 36.8018L35.3429 20.2443C35.505 20.0762 35.505 19.8061 35.3429 19.638L33.3917 17.6208C33.2236 17.4467 32.9415 17.4467 32.7734 17.6208C26.7038 23.7984 20.6342 29.9699 14.5646 36.1474C14.5106 36.2015 14.4686 36.2735 14.4506 36.3516L12.2473 45.813C12.0731 46.4374 11.791 47.1938 12.2473 47.6501C12.6015 48.0043 13.1718 48.1003 13.6821 47.8902L24.2724 44.8104C24.3444 44.7924 24.4104 44.7504 24.4645 44.6964C30.2759 38.7289 36.0813 32.7675 41.8928 26.8001C42.0549 26.626 42.0549 26.3558 41.8868 26.1877Z" fill="black"/>
<path d="M47.5409 19.6915C47.4749 18.917 47.1267 18.3587 46.9406 18.1005C46.9166 18.0645 46.8865 18.0405 46.8565 18.0105L40.949 12.3312C40.877 12.2592 40.7869 12.2052 40.6909 12.1691C40.3907 12.0671 39.8864 11.947 39.28 12.0251C38.7097 12.0971 38.2835 12.3072 38.0313 12.4633C37.9833 12.4933 37.9413 12.5293 37.8992 12.5714L35.3417 15.0988C35.0476 15.387 35.0476 15.8613 35.3417 16.1494L43.4405 24.2121C43.7287 24.5002 44.1909 24.5002 44.4791 24.2181L46.9106 21.8527C47.0606 21.6426 47.637 20.8261 47.5409 19.6915Z" fill="black"/>
</svg>
