<svg width="60" height="60" viewBox="0 0 60 60" fill="none" xmlns="http://www.w3.org/2000/svg">
<rect x="1" y="1" width="58" height="58" rx="13" fill="#6EC2FF" stroke="black" stroke-width="2"/>
<path d="M40.426 16.392H35.2V13.542C35.2 12.696 34.504 12 33.658 12H26.2C25.354 12 24.658 12.696 24.658 13.542V16.392H19.858C17.734 16.392 16 18.126 16 20.25V44.142C16 46.266 17.734 48 19.858 48H40.432C42.556 48 44.29 46.266 44.29 44.142V20.25C44.284 18.132 42.55 16.392 40.426 16.392ZM41.026 44.916H19.342V19.884H24.658V21.858C24.658 22.704 25.354 23.4 26.2 23.4H33.658C34.504 23.4 35.2 22.704 35.2 21.858V19.884H41.026V44.916Z" fill="black"/>
</svg>
