<svg width="60" height="60" viewBox="0 0 60 60" fill="none" xmlns="http://www.w3.org/2000/svg">
<rect x="1" y="1" width="58" height="58" rx="13" fill="#6EC2FF" stroke="black" stroke-width="2"/>
<path d="M28.7122 12.4563C26.7141 15.1022 24.6687 18.0002 22.6469 21.1441C21.1884 23.412 19.8543 25.626 18.633 27.7739C15.8819 33.7498 16.6705 40.3856 20.5184 44.3335C23.5896 47.4894 27.645 47.9334 29.2339 47.9934C29.9395 48.0234 36.8052 48.1674 40.7243 42.5036C43.6828 38.2257 43.7658 32.3758 40.9199 27.6779C39.4851 25.098 37.8606 22.3801 36.0167 19.5781C34.3032 16.9802 32.5897 14.5863 30.9178 12.3903C30.811 12.3123 30.4079 11.9883 29.8091 12.0003C29.1984 12.0123 28.8011 12.3723 28.7122 12.4563Z" fill="black"/>
</svg>
