<svg width="60" height="60" viewBox="0 0 60 60" fill="none" xmlns="http://www.w3.org/2000/svg">
<rect x="1" y="1" width="58" height="58" rx="13" fill="#6EC2FF" stroke="black" stroke-width="2"/>
<path d="M12.3369 14.8626C13.4408 13.9567 14.5386 13.0568 15.6425 12.151C15.7625 12.091 16.0025 11.989 16.3084 12.001C16.9023 12.031 17.2563 12.4869 17.3103 12.5589C17.3823 12.8289 17.4603 13.1048 17.5323 13.3748C17.5683 16.4704 17.6042 19.566 17.6462 22.6615C17.5683 22.7455 17.0403 23.2914 16.2004 23.2555C15.3845 23.2255 14.9046 22.6795 14.8266 22.5895C14.7966 20.3218 14.7726 18.0602 14.7486 15.7925C14.4427 15.9904 14.1307 16.1884 13.8187 16.3864C13.3388 16.5724 12.7929 16.4344 12.4809 16.0504C12.2169 15.7265 12.163 15.2645 12.3369 14.8626Z" fill="black"/>
<path d="M46.2445 19.6202H23.5134C22.9675 19.6202 22.5176 19.1702 22.5176 18.6243V16.5066C22.5176 15.9607 22.9675 15.5107 23.5134 15.5107H46.2445C46.7904 15.5107 47.2404 15.9607 47.2404 16.5066V18.6243C47.2404 19.1702 46.7964 19.6202 46.2445 19.6202Z" fill="black"/>
<path d="M12.3906 26.7293C12.9965 27.1252 13.6085 27.5212 14.2144 27.9171C14.2324 27.8271 14.3584 27.2752 14.8863 26.9632C15.0123 26.8913 15.4022 26.6873 15.8762 26.8073C16.2781 26.9033 16.5301 27.1792 16.6261 27.3232C17.244 28.1931 16.2541 29.8969 15.9542 30.4128C15.5582 31.0907 14.7303 32.2665 13.0985 33.2684C13.0985 33.9703 13.0985 34.6662 13.0985 35.3681C15.2643 35.3681 17.43 35.3681 19.5957 35.3681C19.5957 34.6542 19.5957 33.9403 19.5957 33.2264C18.6598 33.2264 17.7179 33.2264 16.7821 33.2264C17.346 32.6265 18.0779 31.7266 18.6958 30.4908C19.2657 29.3509 19.5477 28.3071 19.6977 27.5332C19.7037 27.3172 19.7037 25.7634 18.4798 24.7855C17.562 24.0536 16.5241 24.1016 16.1821 24.1136C13.8364 24.2036 12.4986 26.5313 12.3906 26.7293Z" fill="black"/>
<path d="M13.4878 36.9335C13.3258 37.0594 13.1099 37.2694 12.9659 37.5874C12.5639 38.4693 13.0799 39.3631 13.1399 39.4651C14.0697 39.4651 15.0056 39.4651 15.9355 39.4651C15.4376 39.975 14.9456 40.485 14.4477 40.9949C14.4357 41.5768 14.4177 42.1588 14.4057 42.7407C14.5677 42.7227 16.1935 42.5787 16.8534 43.5686C16.9254 43.6825 17.1953 44.0785 17.0693 44.4864C16.8894 45.0864 16.0075 45.2363 15.8035 45.2723C15.5995 45.3083 14.9816 45.3803 14.3637 45.0084C13.9018 44.7324 13.6678 44.3545 13.5778 44.1805C13.0499 44.6844 12.5219 45.1823 12 45.6743C12.126 46.0162 12.4439 46.7361 13.1818 47.2941C14.0337 47.936 14.9336 47.978 15.4556 47.996C15.9115 48.008 17.6453 48.062 18.9111 46.7301C19.1211 46.5082 20.6029 44.8884 19.919 43.1006C19.379 41.6908 17.8912 41.2349 17.6873 41.1749C17.9872 40.9469 18.4012 40.581 18.7971 40.053C19.2411 39.4591 19.595 38.9792 19.565 38.3373C19.529 37.6054 19.0011 37.0894 18.7791 36.8975C17.0153 36.9035 15.2516 36.9155 13.4878 36.9335Z" fill="black"/>
<path d="M46.2445 31.5108H23.5134C22.9675 31.5108 22.5176 31.0609 22.5176 30.5149V28.3972C22.5176 27.8513 22.9675 27.4014 23.5134 27.4014H46.2445C46.7904 27.4014 47.2404 27.8513 47.2404 28.3972V30.5149C47.2404 31.0609 46.7964 31.5108 46.2445 31.5108Z" fill="black"/>
<path d="M46.2445 43.7725H23.5134C22.9675 43.7725 22.5176 43.3226 22.5176 42.7767V40.659C22.5176 40.113 22.9675 39.6631 23.5134 39.6631H46.2445C46.7904 39.6631 47.2404 40.113 47.2404 40.659V42.7767C47.2404 43.3286 46.7964 43.7725 46.2445 43.7725Z" fill="black"/>
</svg>
