<svg width="60" height="60" viewBox="0 0 60 60" fill="none" xmlns="http://www.w3.org/2000/svg">
<rect x="1" y="1" width="58" height="58" rx="13" fill="#6EC2FF" stroke="black" stroke-width="2"/>
<path d="M42.7508 12H35.2748C34.1108 12 33.1628 12.954 33.1628 14.112C33.1628 15.2699 34.1168 16.2239 35.2748 16.2239H36.4028C36.4028 22.0798 36.4028 27.9358 36.4028 33.7977C36.2828 34.4217 35.9228 35.7716 34.7768 36.9536C32.8088 38.9816 30.1328 38.8616 29.7068 38.8316C29.2808 38.8496 27.1748 38.8976 25.3688 37.2956C23.5448 35.6816 23.3468 33.5637 23.3108 33.1437C23.2928 27.5038 23.2808 21.8638 23.2628 16.2239H24.6428C25.8068 16.2239 26.7548 15.2699 26.7548 14.112C26.7548 12.954 25.8068 12 24.6428 12H17.1668C16.0028 12 15.0488 12.954 15.0488 14.112C15.0488 15.2699 16.0028 16.2239 17.1608 16.2239H17.8208C17.8808 22.3018 17.9408 28.3737 18.0008 34.4516C18.1388 35.6396 18.6008 38.0396 20.4788 39.9896C23.0648 42.6775 26.6168 42.7195 29.3408 42.7555C31.7048 42.7855 36.1028 42.8455 39.0068 39.8336C40.5128 38.2736 41.5868 36.4676 41.5748 33.9417C41.5448 28.0317 41.5088 22.1278 41.4788 16.2179H42.7388C43.9028 16.2179 44.8508 15.2639 44.8508 14.106C44.8508 12.948 43.9148 12 42.7508 12Z" fill="black"/>
<path d="M42.9 48.0001H16.962C15.882 48.0001 15 47.1181 15 46.0381C15 44.9582 15.882 44.0762 16.962 44.0762H42.9C43.98 44.0762 44.862 44.9582 44.862 46.0381C44.862 47.1181 43.98 48.0001 42.9 48.0001Z" fill="black"/>
</svg>
