<svg width="60" height="60" viewBox="0 0 60 60" fill="none" xmlns="http://www.w3.org/2000/svg">
<rect x="1" y="1" width="58" height="58" rx="13" fill="#6EC2FF" stroke="black" stroke-width="2"/>
<path d="M19.9271 26.3556C19.7261 26.9829 19.3485 28.4811 19.8906 30.2047C20.1464 31.0208 20.53 31.642 20.8467 32.0622C19.6896 33.2255 18.5263 34.3948 17.3692 35.5581C17.1195 36.0087 16.4556 37.3425 16.6932 39.0843C16.748 39.4924 16.9611 41.1185 18.2523 42.2696C19.6835 43.5485 21.9064 43.7921 23.9467 42.9456C26.6386 40.3024 29.3244 37.6531 32.0163 35.0099C32.1929 34.809 33.2405 33.597 33.0334 31.8917C32.9055 30.8076 32.3391 30.0768 32.0833 29.7906C31.1332 29.7906 30.1832 29.7906 29.2331 29.7906C29.0564 29.7053 28.7458 29.5287 28.557 29.1815C28.2708 28.6517 28.4535 28.0731 28.557 27.7564C28.9346 26.581 30.104 25.436 31.6083 25.1132C31.8641 25.0584 33.0273 24.8331 34.2515 25.3873C36.9556 26.5992 38.0762 30.7346 37.4367 33.932C37.0774 35.7347 36.2004 37.0624 35.5365 37.8663C32.8568 40.6861 30.3902 43.177 28.2099 45.3269C27.6131 45.9176 26.6691 46.8312 25.1587 47.428C23.4838 48.0919 22.0039 48.0188 21.1573 47.9701C20.5057 47.9335 17.4605 47.7508 15.1889 45.9359C12.3934 43.7008 11.3459 39.4254 12.4056 35.15C13.0999 33.6092 13.8734 32.4886 14.4398 31.7577C15.201 30.7833 15.9501 30.0524 17.424 28.6395C18.4472 27.6772 19.312 26.8977 19.9271 26.3556Z" fill="black"/>
<path d="M29.7689 30.905C29.7446 31.2339 29.6106 32.4337 28.6179 33.402C27.9053 34.1024 26.8943 34.5288 25.9869 34.4922C23.6482 34.3887 21.7906 31.1426 21.4374 28.5298C20.9197 24.7538 23.502 21.9401 23.9344 21.4773C26.2183 19.169 28.5082 16.8608 30.7921 14.5526C31.5047 13.9375 32.8872 12.9204 34.897 12.3723C37.0529 11.7876 38.8008 12.0495 39.1906 12.1165C42.2662 12.6342 45.2809 14.8328 46.6878 18.0789C48.4539 22.1411 46.9314 26.0998 45.689 28.073C45.622 28.1827 45.5732 28.2558 45.4697 28.4019C44.0568 30.4909 41.7242 33.2498 37.7168 36.3498C37.9238 35.6859 38.1126 34.9124 38.2283 34.0415C38.4598 32.3302 38.3441 30.8502 38.1614 29.7479C39.3855 28.9744 41.5293 27.3422 42.5829 24.5589C42.8874 23.755 43.2589 22.7319 43.0945 21.4164C42.8752 19.6867 41.7546 17.6526 39.6352 16.7999C37.4792 15.9351 34.9396 16.5441 33.2891 18.3408C31.1088 20.4785 28.9285 22.6161 26.7481 24.7477C26.5837 24.9122 25.5849 25.9719 25.725 27.5066C25.8285 28.6699 26.535 29.4007 26.8151 29.687C27.9479 30.8259 29.4035 30.8989 29.7689 30.905Z" fill="black"/>
</svg>
