<svg width="60" height="60" viewBox="0 0 60 60" fill="none" xmlns="http://www.w3.org/2000/svg">
<rect x="1" y="1" width="58" height="58" rx="13" fill="#6EC2FF" stroke="black" stroke-width="2"/>
<path d="M45.9257 20.6745C45.4099 20.1587 44.8881 19.6369 44.3723 19.1211C42.543 17.2918 40.7197 15.4685 38.8904 13.6392C38.3506 13.0934 37.8108 12.5536 37.271 12.0139C30.2178 12.0618 23.1045 11.9659 16.0572 12.0139C14.8877 12.0139 14 13.1054 14 14.269V45.8828C14 47.0464 14.9536 48 16.1172 48H44.2104C45.3739 48 46.3276 47.0464 46.3276 45.8828C46.1956 37.4801 46.0637 29.0773 45.9257 20.6745ZM16.639 45.0671C16.681 35.117 16.7289 25.1668 16.7709 15.2166C22.9785 15.2346 29.1862 15.2466 35.3938 15.2646C35.3938 16.872 35.3938 18.4794 35.3938 20.0927C35.4118 20.2427 35.5197 21.0044 36.2035 21.5382C36.7912 21.994 37.421 21.994 37.6009 21.988C39.2683 22.018 40.9356 22.048 42.609 22.078C42.615 29.743 42.621 37.4081 42.633 45.0791C33.9723 45.0671 25.3056 45.0671 16.639 45.0671Z" fill="black"/>
</svg>
