<svg width="60" height="60" viewBox="0 0 60 60" fill="none" xmlns="http://www.w3.org/2000/svg">
<rect x="1" y="1" width="58" height="58" rx="13" fill="#6EC2FF" stroke="black" stroke-width="2"/>
<path d="M46.0779 11.0244L46.9433 11.57C47.0436 11.6327 47.1753 11.6139 47.238 11.5136C47.3321 11.3881 47.4826 11.2188 47.7146 11.0809C47.8024 11.0307 48.0908 10.8802 48.4357 10.968C48.7305 11.037 48.9123 11.2439 48.9876 11.3442C49.4391 11.9776 48.7179 13.2192 48.4985 13.5955C48.21 14.0909 47.608 14.95 46.4165 15.6774V16.9379C46.4165 17.0884 46.5357 17.2075 46.6862 17.2075H50.8438C51.0131 17.2075 51.151 17.0696 51.151 16.9003V15.8969C51.151 15.759 51.0382 15.6461 50.9002 15.6461H49.1067C49.5206 15.2071 50.0536 14.5487 50.5051 13.6519C50.7873 13.0876 50.9692 12.5608 51.0946 12.103C51.2514 11.5261 51.2451 10.9053 51.0005 10.3534C50.8688 10.0524 50.6682 9.74517 50.3484 9.49433C49.6836 8.96131 48.9249 8.99266 48.674 9.0052C47.238 9.05537 46.3162 10.2531 46.0089 10.7234C45.9462 10.8238 45.9776 10.9555 46.0779 11.0244Z" fill="black"/>
<path d="M17.7523 16.4299C16.8305 16.7623 16.2348 17.6527 16.2724 18.6059C16.31 19.5026 16.8932 20.299 17.7523 20.6063C18.7117 20.6063 19.6712 20.6063 20.6244 20.6063C20.9316 20.7819 21.3142 21.0578 21.6716 21.478C22.1294 22.0235 22.3175 22.5566 22.3677 22.6945C22.7188 23.6414 24.3304 26.7831 26.8952 31.5804C24.4559 34.4525 22.0165 37.3308 19.5771 40.2029C19.4141 40.2969 19.1444 40.4412 18.7933 40.554C17.6896 40.8989 17.1378 40.5039 16.3539 40.8174C15.7958 41.0369 15.338 41.526 15.1374 42.034C14.7799 42.9307 15.1374 44.0657 16.009 44.906C18.9438 44.9374 21.8723 44.9625 24.807 44.9938C25.8229 44.8183 26.5754 43.9717 26.6381 42.9934C26.7008 41.9211 25.917 40.924 24.807 40.7296C26.1741 39.1619 27.5349 37.5942 28.9019 36.0265C30.1812 38.4094 31.4542 40.7861 32.7334 43.169C32.8526 43.4951 33.1598 44.1974 33.8935 44.6803C34.1318 44.8371 34.3638 44.9374 34.5582 45.0001C37.355 45.0001 40.1519 45.0001 42.9487 45.0001C43.9018 44.7869 44.5979 43.9591 44.6355 42.9997C44.6732 42.0089 44.0084 41.1122 43.0365 40.8488C41.9265 40.8488 40.8103 40.8425 39.7004 40.8425C37.6372 36.9106 35.5804 32.9725 33.5173 29.0407C36.0883 26.1498 38.6531 23.2652 41.2242 20.3743C42.2087 20.3743 43.1995 20.3743 44.184 20.3743C45.0557 20.0733 45.6389 19.2393 45.6201 18.33C45.6012 17.4458 45.0243 16.6619 44.184 16.3672C41.2493 16.3797 38.3208 16.3985 35.386 16.4111C34.3638 16.618 33.6615 17.5461 33.7305 18.5432C33.8057 19.6092 34.7526 20.4558 35.8626 20.4182C34.483 22.0173 33.1034 23.6101 31.7238 25.2092C30.0997 22.3057 28.4692 19.4023 26.8451 16.4989C23.8225 16.4738 20.7874 16.455 17.7523 16.4299Z" fill="black"/>
</svg>
