<svg width="60" height="60" viewBox="0 0 60 60" fill="none" xmlns="http://www.w3.org/2000/svg">
<rect x="1" y="1" width="58" height="58" rx="13" fill="#6EC2FF" stroke="black" stroke-width="2"/>
<path d="M22.3519 47.9995H14.63C14.282 47.9995 14 47.7175 14 47.3695V32.0216C14 31.6736 14.282 31.3916 14.63 31.3916H22.3579C22.7059 31.3916 22.9879 31.6736 22.9879 32.0216V47.3635C22.9879 47.7175 22.6999 47.9995 22.3519 47.9995Z" fill="black"/>
<path d="M33.7645 48.0003H26.4206C25.9886 48.0003 25.6406 47.6523 25.6406 47.2203V23.0944C25.6406 22.6625 25.9886 22.3145 26.4206 22.3145H33.7645C34.1965 22.3145 34.5445 22.6625 34.5445 23.0944V47.2203C34.5445 47.6523 34.1965 48.0003 33.7645 48.0003Z" fill="black"/>
<path d="M46.0212 47.9997H38.0473C37.6213 47.9997 37.2793 47.6577 37.2793 47.2318V12.768C37.2793 12.342 37.6213 12 38.0473 12H46.0212C46.4472 12 46.7892 12.342 46.7892 12.768V47.2377C46.7832 47.6577 46.4412 47.9997 46.0212 47.9997Z" fill="black"/>
</svg>
