<svg width="29" height="60" viewBox="0 0 29 60" fill="none" xmlns="http://www.w3.org/2000/svg">
<mask id="path-1-inside-1_207_1042" fill="white">
<path d="M0 14C0 6.26801 6.26801 0 14 0H29V60H14C6.26801 60 0 53.732 0 46V14Z"/>
</mask>
<path d="M0 14C0 6.26801 6.26801 0 14 0H29V60H14C6.26801 60 0 53.732 0 46V14Z" fill="#6EC2FF"/>
<path d="M-2 14C-2 5.16344 5.16344 -2 14 -2H29V2H14C7.37258 2 2 7.37258 2 14H-2ZM29 62H14C5.16344 62 -2 54.8366 -2 46H2C2 52.6274 7.37258 58 14 58H29V62ZM14 62C5.16344 62 -2 54.8366 -2 46V14C-2 5.16344 5.16344 -2 14 -2V2C7.37258 2 2 7.37258 2 14V46C2 52.6274 7.37258 58 14 58V62ZM29 0V60V0Z" fill="black" mask="url(#path-1-inside-1_207_1042)"/>
<path d="M29 21.584H14.28C13.026 21.584 12 20.558 12 19.304V19.28C12 18.026 13.026 17 14.28 17H29C29 18 29 18.026 29 19.28C29 20.528 29 20.5 29 21.584Z" fill="black"/>
<path d="M29 33L14.28 32.9963C13.026 32.9963 12 31.9703 12 30.7163V30.6863C12 29.4323 13.026 28.4062 14.28 28.4062L29 28.5C29 29.5 29 29.746 29 31C29 32.254 29 32.5 29 33Z" fill="black"/>
<path d="M29 43.7843H14.28C13.026 43.7843 12 42.7583 12 41.5043V41.4743C12 40.2203 13.026 39.1943 14.28 39.1943H29C29 40.5 29 40.2203 29 41.4743V41.5043C29 42.7583 29 43 29 43.7843Z" fill="black"/>
</svg>
