<svg width="60" height="60" viewBox="0 0 60 60" fill="none" xmlns="http://www.w3.org/2000/svg">
<rect x="1" y="1" width="58" height="58" rx="13" fill="#6EC2FF" stroke="black" stroke-width="2"/>
<path d="M16.2527 22.431C18.5808 22.431 20.4682 20.5436 20.4682 18.2155C20.4682 15.8873 18.5808 14 16.2527 14C13.9245 14 12.0371 15.8873 12.0371 18.2155C12.0371 20.5436 13.9245 22.431 16.2527 22.431Z" fill="black"/>
<path d="M16.2521 34.389C18.6005 34.389 20.5043 32.4852 20.5043 30.1369C20.5043 27.7885 18.6005 25.8848 16.2521 25.8848C13.9038 25.8848 12 27.7885 12 30.1369C12 32.4852 13.9038 34.389 16.2521 34.389Z" fill="black"/>
<path d="M16.2521 46.1253C18.6005 46.1253 20.5043 44.2216 20.5043 41.8732C20.5043 39.5248 18.6005 37.6211 16.2521 37.6211C13.9038 37.6211 12 39.5248 12 41.8732C12 44.2216 13.9038 46.1253 16.2521 46.1253Z" fill="black"/>
<path d="M47.1458 32.2275H23.7193C23.2496 32.2275 22.8652 31.8431 22.8652 31.3734V28.9088C22.8652 28.439 23.2496 28.0547 23.7193 28.0547H47.1458C47.6155 28.0547 47.9999 28.439 47.9999 28.9088V31.3734C48.006 31.8431 47.6216 32.2275 47.1458 32.2275Z" fill="black"/>
<path d="M47.1458 43.9589H23.7193C23.2496 43.9589 22.8652 43.5746 22.8652 43.1048V40.6402C22.8652 40.1705 23.2496 39.7861 23.7193 39.7861H47.1458C47.6155 39.7861 47.9999 40.1705 47.9999 40.6402V43.1048C48.006 43.5746 47.6216 43.9589 47.1458 43.9589Z" fill="black"/>
<path d="M47.0911 20.3088H23.6646C23.1949 20.3088 22.8105 19.9244 22.8105 19.4547V16.984C22.8105 16.5142 23.1949 16.1299 23.6646 16.1299H47.0911C47.5609 16.1299 47.9452 16.5142 47.9452 16.984V19.4486C47.9513 19.9183 47.567 20.3088 47.0911 20.3088Z" fill="black"/>
</svg>
