<svg width="60" height="60" viewBox="0 0 60 60" fill="none" xmlns="http://www.w3.org/2000/svg">
<rect x="1" y="1" width="58" height="58" rx="13" fill="#6EC2FF" stroke="black" stroke-width="2"/>
<path d="M42.5507 32.6608C40.7449 30.0332 38.0753 29.3194 37.4214 29.1694C40.397 27.2497 42.1667 24.0162 41.9567 20.6987C41.7288 17.1172 39.2872 14.8796 38.6153 14.3096C36.2456 12.288 33.618 12.042 32.7422 12C27.241 12.102 21.7398 12.198 16.2447 12.3C15.9207 12.5999 15.2248 13.3378 15.0569 14.4536C14.9969 14.8676 14.9009 15.4975 15.2788 16.0914C15.6328 16.6433 16.1847 16.8413 16.3947 16.9073C17.1625 16.8833 17.9304 16.8593 18.6983 16.8353C18.7223 25.6059 18.7463 34.3766 18.7703 43.1472C18.2004 43.1472 17.6305 43.1472 17.0606 43.1472C16.8686 43.2252 15.5668 43.7891 15.2008 45.1509C14.9729 45.9908 15.0569 47.3166 15.8787 47.7965C16.1607 47.9585 16.4606 47.9885 16.6826 47.9765C21.5119 47.9765 26.3471 47.9765 31.1764 47.9765C32.3822 48.0485 35.9877 48.1085 39.3531 45.6729C40.391 44.923 43.4445 42.7153 43.9604 38.7619C44.1224 37.5681 44.2004 35.0545 42.5507 32.6608ZM25.5313 17.2492C27.6009 17.2492 29.6706 17.2492 31.7463 17.2492C31.9563 17.3152 34.1459 18.0171 34.9438 20.4407C35.0338 20.7047 35.7417 22.9783 34.4039 24.988C33.3001 26.6438 31.6023 26.9137 31.3024 26.9617C29.3767 26.9617 27.451 26.9617 25.5313 26.9617C25.5313 23.7282 25.5313 20.4887 25.5313 17.2492ZM36.2696 40.7596C34.9618 42.5713 32.9521 42.8713 32.5982 42.9193C30.3185 42.9193 28.0389 42.9193 25.7592 42.9193C25.7592 39.3738 25.7592 35.8344 25.7592 32.2889C28.2128 32.2889 30.6665 32.2889 33.1141 32.2889C33.3661 32.3609 35.9517 33.1288 36.9055 35.7804C37.0075 36.0683 37.8534 38.5639 36.2696 40.7596Z" fill="black"/>
</svg>
