<svg width="54" height="60" viewBox="0 0 54 60" fill="none" xmlns="http://www.w3.org/2000/svg">
<mask id="path-1-inside-1_208_1146" fill="white">
<path d="M0 0H40C47.732 0 54 6.26801 54 14V46C54 53.732 47.732 60 40 60H0V0Z"/>
</mask>
<path d="M0 0H40C47.732 0 54 6.26801 54 14V46C54 53.732 47.732 60 40 60H0V0Z" fill="#6EC2FF"/>
<path d="M0 -2H40C48.8366 -2 56 5.16344 56 14H52C52 7.37258 46.6274 2 40 2H0V-2ZM56 46C56 54.8366 48.8366 62 40 62H0V58H40C46.6274 58 52 52.6274 52 46H56ZM0 60V0V60ZM40 -2C48.8366 -2 56 5.16344 56 14V46C56 54.8366 48.8366 62 40 62V58C46.6274 58 52 52.6274 52 46V14C52 7.37258 46.6274 2 40 2V-2Z" fill="black" mask="url(#path-1-inside-1_208_1146)"/>
<path d="M13.9964 34.2842C16.0297 36.3175 18.057 38.3448 20.0903 40.3781C17.0253 42.3994 13.9604 44.4207 10.8894 46.4421C10.7875 46.502 10.6375 46.574 10.4456 46.616C10.1937 46.676 9.97775 46.658 9.8398 46.64C8.87413 47.7076 7.90247 48.2115 7.38065 47.9176C7.2187 47.8276 7.14073 47.6776 7.10474 47.6117C6.78086 46.9879 7.2307 45.9622 8.14239 45.0145C8.13639 44.7866 8.13039 44.5527 8.12439 44.3248C10.0797 40.9719 12.041 37.625 13.9964 34.2842Z" fill="black"/>
<path d="M21.6377 38.7584C27.2877 33.0063 32.9318 27.2543 38.5819 21.4962C36.8784 19.6908 35.175 17.8855 33.4716 16.0801C33.5316 15.9661 33.6216 15.8102 33.7715 15.6362C33.9514 15.4263 34.1974 15.1444 34.5932 15.0604C34.9711 14.9824 35.295 15.1264 35.4329 15.2044C36.9024 16.7039 38.3719 18.1974 39.8414 19.6968C40.0693 19.373 41.029 17.9634 40.7651 16.0441C40.7051 15.6302 40.4832 14.1727 39.2296 13.0931C37.8381 11.8935 35.7688 11.6716 34.1674 12.4753C33.0757 13.0271 32.4999 13.9028 32.26 14.3227C32.0201 14.1907 31.5943 14.0048 31.0365 13.9508C30.8325 13.9328 30.4666 13.9208 29.8848 14.0528C28.9072 14.2807 28.0435 14.7905 27.5457 15.1624C26.3581 16.0501 22.7173 19.6309 18.1109 24.7591C17.805 25.215 17.889 25.8208 18.2728 26.1566C18.7047 26.5285 19.4005 26.4685 19.7903 25.9947C23.0292 22.8758 26.2741 19.7568 29.513 16.6439C29.7829 16.374 30.1727 16.302 30.4606 16.4519C30.7246 16.5899 30.8085 16.8658 30.8265 16.9258C25.6923 22.15 20.5581 27.3742 15.4238 32.5985C17.4931 34.6558 19.5624 36.7071 21.6377 38.7584Z" fill="black"/>
</svg>
