<svg width="60" height="60" viewBox="0 0 60 60" fill="none" xmlns="http://www.w3.org/2000/svg">
<rect x="1" y="1" width="58" height="58" rx="13" fill="#6EC2FF" stroke="black" stroke-width="2"/>
<path d="M30.7461 12.9974V28.9355C30.7461 29.4706 31.185 29.9095 31.7201 29.9095H46.7084C47.1954 29.9095 47.6102 29.5548 47.6703 29.0738C47.9469 26.9876 48.1694 21.751 44.4117 17.254C40.1491 12.1557 34.0047 11.9092 31.672 12.0174C31.1549 12.0474 30.7461 12.4743 30.7461 12.9974Z" fill="black"/>
<path d="M29.1888 30.8954V14.0074C29.1888 13.6466 28.8822 13.346 28.5214 13.3641C19.3589 13.821 12.006 21.4804 12 30.667C11.994 40.082 19.7016 48 29.1888 48C38.1469 48 45.4998 40.9357 46.2874 32.2181C46.3235 31.8454 46.0168 31.5267 45.6441 31.5267H29.8261C29.4714 31.5267 29.1888 31.2441 29.1888 30.8954Z" fill="black"/>
</svg>
