<svg width="77" height="274" viewBox="0 0 77 274" fill="none" xmlns="http://www.w3.org/2000/svg">
<path d="M38.5703 199.398C41.6666 199.011 44.9153 194.852 47.3696 193.099C50.6988 190.721 54.362 185.56 56.1188 181.852C57.3156 179.326 60.6578 175.828 61.0184 173.304C61.4039 170.605 62.0183 168.655 62.8682 166.105" stroke="white" stroke-width="3" stroke-linecap="round"/>
<path d="M21.4727 162.508C23.0753 166.915 32.2717 168.709 32.2717 173.305" stroke="white" stroke-width="3" stroke-linecap="round"/>
<path d="M28.6719 150.812C30.9906 150.812 33.3544 154.767 35.0713 156.361C36.945 158.101 42.1707 160.802 42.1707 163.41" stroke="white" stroke-width="3" stroke-linecap="round"/>
<path d="M43.0703 241.691C43.9367 245.59 53.1685 251.76 56.1692 253.389C59.3742 255.128 70.9426 266.011 74.5676 262.387" stroke="white" stroke-width="3" stroke-linecap="round"/>
<path d="M56.5703 236.289C56.7371 234.789 58.5834 233.945 59.77 233.19C62.0055 231.767 62.314 232.041 64.1697 229.991C65.3445 228.692 70.6251 221.271 71.869 221.892" stroke="white" stroke-width="3" stroke-linecap="round"/>
<path d="M63.7695 245.287C64.136 241.989 71.7737 234.987 74.5686 233.59" stroke="white" stroke-width="3" stroke-linecap="round"/>
<path d="M37.6719 111.223C37.6719 118.1 39.9453 124.341 44.8713 129.618C48.1304 133.11 51.5196 137.745 55.9203 139.816C57.6724 140.64 60.9414 140.016 62.8697 140.016" stroke="white" stroke-width="3" stroke-linecap="round"/>
<path d="M50.2695 117.519C53.0897 117.262 56.5809 114.564 59.2688 113.22C62.096 111.806 63.8416 109.372 66.4681 107.621" stroke="white" stroke-width="3" stroke-linecap="round"/>
<path d="M57.4688 129.216C58.4228 126.592 71.8675 115.302 71.8675 118.418" stroke="white" stroke-width="3" stroke-linecap="round"/>
<path d="M42.0695 2.06641C41.3396 9.60845 36.7226 15.378 33.0549 21.6865C30.3517 26.3359 29.0316 31.5658 26.7977 36.428C25.1248 40.069 25.7024 44.4861 24.4114 48.3591C22.6153 53.7476 21.4491 59.092 19.1618 64.3203C14.9671 73.9081 11.2854 83.9866 8.45028 93.9095C6.20707 101.761 5.99367 111.3 4.63232 119.469C3.2289 127.889 1.98096 136.694 1.98096 145.24C1.98096 160.897 1.55064 178.602 5.79892 193.707C12.2278 216.565 20.3887 238.552 28.7066 260.733" stroke="white" stroke-width="3" stroke-linecap="round"/>
<path d="M33.482 243.551C35.0359 244.328 35.8753 251.502 36.1333 253.308C36.7675 257.747 36.3454 262.454 36.3454 266.936C36.3454 279.335 15.0545 265.985 10.5742 263.595" stroke="white" stroke-width="3" stroke-linecap="round"/>
</svg>
