<svg width="97" height="97" viewBox="0 0 97 97" fill="none" xmlns="http://www.w3.org/2000/svg">
<path d="M18.2085 26.8064C18.2085 25.9683 18.888 25.2891 19.7258 25.2891H37.9343C38.7724 25.2891 39.4517 25.9685 39.4517 26.8064C39.4517 27.6445 38.7722 28.3237 37.9343 28.3237H19.7258C18.8878 28.3237 18.2085 27.6445 18.2085 26.8064ZM76.3741 67.7754H58.1656C57.3276 67.7754 56.6483 68.4549 56.6483 69.2927C56.6483 70.1306 57.3278 70.8101 58.1656 70.8101H76.3741C77.2122 70.8101 77.8915 70.1306 77.8915 69.2927C77.8915 68.4549 77.2122 67.7754 76.3741 67.7754ZM39.9573 53.6132H19.7258C18.8878 53.6132 18.2085 54.2927 18.2085 55.1306C18.2085 55.9686 18.888 56.6479 19.7258 56.6479H39.9573C40.7954 56.6479 41.4746 55.9684 41.4746 55.1306C41.4746 54.2927 40.7954 53.6132 39.9573 53.6132ZM76.3741 53.6132H58.1656C57.3276 53.6132 56.6483 54.2927 56.6483 55.1306C56.6483 55.9686 57.3278 56.6479 58.1656 56.6479H76.3741C77.2122 56.6479 77.8915 55.9684 77.8915 55.1306C77.8915 54.2927 77.2122 53.6132 76.3741 53.6132ZM38.44 40.9686C38.44 41.8066 39.1194 42.4859 39.9573 42.4859H76.3741C77.2122 42.4859 77.8915 41.8064 77.8915 40.9686C77.8915 40.1305 77.212 39.4512 76.3741 39.4512H39.9573C39.1194 39.451 38.44 40.1305 38.44 40.9686ZM19.7258 42.4859H27.8185C28.6566 42.4859 29.3358 41.8064 29.3358 40.9686C29.3358 40.1305 28.6564 39.4512 27.8185 39.4512H19.7258C18.8878 39.4512 18.2085 40.1307 18.2085 40.9686C18.2085 41.8064 18.8878 42.4859 19.7258 42.4859ZM33.6855 39.451C32.8474 39.451 32.1681 40.1305 32.1681 40.9684C32.1681 41.8064 32.8476 42.4857 33.6855 42.4857H33.8878C34.7259 42.4857 35.4051 41.8062 35.4051 40.9684C35.4051 40.1303 34.7257 39.451 33.8878 39.451H33.6855ZM46.2292 53.6132H46.0268C45.1888 53.6132 44.5095 54.2927 44.5095 55.1306C44.5095 55.9686 45.1889 56.6479 46.0268 56.6479H46.2292C47.0672 56.6479 47.7465 55.9684 47.7465 55.1306C47.7465 54.2927 47.0672 53.6132 46.2292 53.6132ZM52.0963 53.6132H51.894C51.0559 53.6132 50.3767 54.2927 50.3767 55.1306C50.3767 55.9686 51.0561 56.6479 51.894 56.6479H52.0963C52.9344 56.6479 53.6137 55.9684 53.6137 55.1306C53.6137 54.2927 52.9344 53.6132 52.0963 53.6132Z" fill="#4D4C47"/>
<path d="M49.4808 70.4217L41.6126 76.631C41.2175 76.9428 40.5769 76.9428 40.182 76.631C39.9922 76.4812 39.8858 76.2781 39.8858 76.0666V72.3275H13.1867H12.1752C6.31836 72.3275 1.55371 67.5629 1.55371 61.706C1.55371 56.0189 6.04676 51.3621 11.6696 51.0971V54.1378C7.72119 54.3992 4.58856 57.6927 4.58856 61.7058C4.58856 65.8894 7.99185 69.2927 12.1754 69.2927H13.1869H39.886V62.5189C39.886 62.3074 39.9926 62.1041 40.1822 61.9545C40.5773 61.6428 41.2179 61.6428 41.6128 61.9545L49.481 68.1639C50.2708 68.7872 50.2708 69.7979 49.4808 70.4217ZM83.9251 26.8063H82.9136H56.1428V20.0326C56.1428 19.8211 56.0362 19.6178 55.8466 19.4682C55.4515 19.1564 54.8111 19.1564 54.416 19.4682L46.5478 25.6775C45.7578 26.3011 45.7578 27.3118 46.5478 27.9353L54.416 34.1447C54.8111 34.4564 55.4515 34.4564 55.8466 34.1447C56.0364 33.9949 56.1428 33.7918 56.1428 33.5803V29.8412H82.9136H83.9251C88.1087 29.8412 91.5119 33.2445 91.5119 37.428C91.5119 41.4413 88.3793 44.7346 84.431 44.9961V48.0367C90.0537 47.7717 94.5468 43.1152 94.5468 37.4278C94.5468 31.5712 89.782 26.8063 83.9251 26.8063Z" fill="#B9B3B1"/>
<path d="M85.9481 25.2998V9.61C85.9481 4.31117 81.637 0 76.3381 0H19.6898C14.391 0 10.0798 4.31117 10.0798 9.61V49.5808C4.47353 49.8639 0 54.5139 0 60.189C0 66.0459 4.76465 70.8105 10.6215 70.8105H38.3321V76.0667C38.3321 76.7441 38.6504 77.384 39.2052 77.8222L39.2056 77.8226C40.1493 78.5672 41.5724 78.567 42.5162 77.8226L50.3844 71.6133C51.128 71.0265 51.5543 70.1808 51.5543 69.2934C51.5543 68.4057 51.128 67.5602 50.3846 66.9733L42.5164 60.7641C41.5726 60.0191 40.1493 60.0193 39.2056 60.7641C38.6504 61.2024 38.3321 61.8422 38.3321 62.5198V67.7758H13.1145V9.61C13.1145 5.98448 16.0643 3.03466 19.6898 3.03466H76.3383C79.964 3.03466 82.9137 5.98448 82.9137 9.61V25.2895H57.624V20.0333C57.624 19.3555 57.3054 18.7155 56.7499 18.2774C55.8061 17.533 54.3832 17.533 53.4399 18.2776L45.5717 24.4869C44.8282 25.0737 44.402 25.9192 44.4018 26.8068C44.4018 27.6944 44.828 28.54 45.5717 29.1269L53.4397 35.3359C54.3834 36.081 55.8069 36.0809 56.7495 35.3365C57.3053 34.8984 57.624 34.2583 57.624 33.5804V28.3242H85.4783C89.6619 28.3242 93.0652 31.7275 93.0652 35.911C93.0652 39.9365 89.9136 43.2401 85.9481 43.4836V35.911C85.9481 35.0729 85.269 34.3937 84.4308 34.3937C83.5925 34.3937 82.9135 35.0731 82.9135 35.911V86.49C82.9135 90.1155 79.9638 93.0653 76.3381 93.0653H19.6898C16.0643 93.0653 13.1145 90.1155 13.1145 86.49V78.3973C13.1145 77.5593 12.435 76.88 11.5971 76.88C10.7593 76.88 10.0798 77.5595 10.0798 78.3973V86.49C10.0798 91.7888 14.391 96.1 19.6898 96.1H76.3383C81.6371 96.1 85.9483 91.7888 85.9483 86.49V46.5223C91.588 46.2759 96.1 41.6105 96.1 35.911C96.1 30.2114 91.588 25.5463 85.9481 25.2998ZM10.0798 67.7565C6.14815 67.478 3.03485 64.1903 3.03485 60.1888C3.03485 56.1873 6.14834 52.8999 10.0798 52.6211V67.7565ZM41.3669 63.7226L48.426 69.2932L41.3669 74.8638V63.7226ZM54.5893 32.3773L47.5303 26.8068L54.5893 21.2362V32.3773Z" fill="#4D4C47"/>
</svg>
