<svg width="928" height="1141" viewBox="0 0 928 1141" fill="none" xmlns="http://www.w3.org/2000/svg">
<path d="M791.24 40.4122C697.791 40.4122 597.009 20.4253 504.391 6.80506C408.951 -7.23035 327.186 19.9325 238.25 49.5778C77.244 103.246 46.5196 284.339 26.0837 431.477C11.9896 532.955 3 630.842 3 733.602C3 754.023 9.11039 775.99 9.11039 798.101C9.11039 821.742 3.68382 853.28 10.4683 876.178C21.6332 913.86 46.0587 940.214 64.1039 975.302C84.1073 1014.2 113.494 1057.27 153.044 1078.84C189.5 1098.72 235.111 1100.15 274.573 1109.73C328.617 1122.86 381.471 1125.38 436.498 1131.12C589.35 1147.04 757.074 1142.03 846.234 998.386C886.933 932.815 912.284 831.614 919.219 755.328C924.241 700.084 927.131 645.502 920.916 590.347C915.124 538.941 922.979 482.161 910.393 431.817C897.848 381.636 895.438 324.739 889.007 273.286C884.259 235.309 870.007 194.016 857.097 157.867C844.759 123.323 820.59 64.4528 785.13 52.633" stroke="white" stroke-width="6" stroke-linecap="round"/>
</svg>
