<svg width="970" height="982" viewBox="0 0 970 982" fill="none" xmlns="http://www.w3.org/2000/svg">
<path d="M679.182 2.44531C595.217 2.44531 514.558 6.65713 431.372 19.4186C357.17 30.8019 294.866 53.037 227.692 87.9908C158.208 124.147 38.6555 172.191 19.2602 259.082C-10.0519 390.4 7.0394 525.289 7.0394 657.615C7.0394 763.518 -7.86811 870.33 92.5849 932.583C148.526 967.25 194.599 980.108 260.281 980.108C405.096 980.108 555.947 954.643 697.514 925.454C769.845 910.54 810.394 893.545 853.328 833.119C904.557 761.02 932.527 677.71 953.471 592.437C972.123 516.495 970.903 427.556 962.637 350.398C954.208 271.732 948.126 161.794 893.385 100.212C851.264 52.8244 788.783 32.9973 725.01 32.9973C684.852 32.9973 645.317 20.7765 605.858 20.7765" stroke="white" stroke-width="3" stroke-linecap="round"/>
<path d="M398.02 779.82C408.15 780.833 420.538 801.119 428.647 807.542C454.117 827.715 485.258 840.66 516.618 848.23C537.032 853.157 558.371 857.437 579.103 852.254" stroke="white" stroke-width="3" stroke-linecap="round"/>
<path d="M565.018 842.195C575.221 842.705 584.715 847.739 593.745 852.144C601.599 855.975 607.802 857.514 597.098 859.298C591.688 860.199 586.956 860.072 583.126 864.328C579.875 867.94 579.918 872.775 575.078 874.388" stroke="white" stroke-width="3" stroke-linecap="round"/>
<path d="M552.945 729.52C595.129 729.52 633.499 741.486 668.638 765.289C684.325 775.916 687.752 785.825 687.752 803.965" stroke="white" stroke-width="3" stroke-linecap="round"/>
<path d="M669.645 793.907C674.325 798.587 680.996 803.909 686.188 807.544C687.386 808.382 697.491 798.045 698.596 797.036C703.246 792.791 704.155 791.895 697.813 791.895" stroke="white" stroke-width="3" stroke-linecap="round"/>
<path d="M95.0527 843.457C96.6488 859.418 114.526 856.636 125.804 856.636" stroke="white" stroke-width="3" stroke-linecap="round"/>
<path d="M108.232 834.672C108.232 824.822 112.47 826.041 119.215 819.297" stroke="white" stroke-width="3" stroke-linecap="round"/>
<path d="M121.412 836.869C126.305 836.869 134.591 823.501 134.591 823.689" stroke="white" stroke-width="3" stroke-linecap="round"/>
<path d="M196.371 820.537C209.17 820.537 221.757 804.785 228.268 795.02" stroke="white" stroke-width="3" stroke-linecap="round"/>
<path d="M187.865 788.641C188.217 791.456 200.318 798.894 197.434 800.336" stroke="white" stroke-width="3" stroke-linecap="round"/>
<path d="M199.561 783.324C201.541 783.572 203.213 786.324 204.877 787.341C206.212 788.157 208.354 791.83 208.066 791.83" stroke="white" stroke-width="3" stroke-linecap="round"/>
<path d="M255.912 815.219C258.7 814.909 260.828 811.592 263.945 811.025C268.582 810.182 274.146 810.836 278.831 810.966C283.43 811.094 300.287 815.64 296.315 821.598" stroke="white" stroke-width="3" stroke-linecap="round"/>
<path d="M264.418 836.485C264.683 833.83 265.772 828.731 267.076 826.385C268.108 824.528 267.568 817.109 268.671 823.726" stroke="white" stroke-width="3" stroke-linecap="round"/>
<path d="M273.986 841.8C273.986 838.295 274.786 835.357 276.349 832.231C277.23 830.47 278.239 825.981 278.239 829.041" stroke="white" stroke-width="3" stroke-linecap="round"/>
<path d="M146.458 306.809C133.457 322.104 126.103 344.897 115.853 362.244C106.873 377.441 96.7449 392.722 93.043 410.173C83.6956 454.24 87.7959 488.851 104.881 530.14C120.222 567.214 140.328 602.58 162.049 636.248C164.552 640.127 172.631 654.64 175.042 649.818" stroke="white" stroke-width="3" stroke-linecap="round"/>
<path d="M138.662 649.821C148.667 649.821 157.463 652.42 167.246 652.42C186.371 652.42 173.205 622.975 167.246 613.441" stroke="white" stroke-width="3" stroke-linecap="round"/>
<path d="M142.555 492.317C147.196 491.737 152.065 485.502 155.744 482.874C160.735 479.31 166.226 471.572 168.859 466.013C170.653 462.225 175.663 456.981 176.203 453.198C176.781 449.152 177.702 446.228 178.976 442.406" stroke="white" stroke-width="3" stroke-linecap="round"/>
<path d="M116.924 437.008C119.326 443.614 133.111 446.305 133.111 453.195" stroke="white" stroke-width="3" stroke-linecap="round"/>
<path d="M127.715 419.473C131.19 419.473 134.734 425.401 137.307 427.791C140.116 430.399 147.949 434.449 147.949 438.358" stroke="white" stroke-width="3" stroke-linecap="round"/>
<path d="M149.299 555.715C150.597 561.559 164.435 570.809 168.933 573.251C173.738 575.859 191.078 592.174 196.512 586.74" stroke="white" stroke-width="3" stroke-linecap="round"/>
<path d="M169.533 547.623C169.783 545.373 172.551 544.108 174.329 542.976C177.68 540.844 178.143 541.254 180.924 538.18C182.685 536.234 190.601 525.107 192.465 526.04" stroke="white" stroke-width="3" stroke-linecap="round"/>
<path d="M180.324 561.11C180.874 556.166 192.322 545.669 196.511 543.574" stroke="white" stroke-width="3" stroke-linecap="round"/>
<path d="M141.205 360.121C141.205 370.431 144.613 379.788 151.997 387.699C156.882 392.934 161.962 399.883 168.559 402.987C171.185 404.223 176.085 403.287 178.975 403.287" stroke="white" stroke-width="3" stroke-linecap="round"/>
<path d="M160.09 369.561C164.317 369.177 169.55 365.131 173.579 363.116C177.817 360.997 180.434 357.347 184.371 354.723" stroke="white" stroke-width="3" stroke-linecap="round"/>
<path d="M170.881 387.098C172.311 383.165 192.464 366.238 192.464 370.91" stroke="white" stroke-width="3" stroke-linecap="round"/>
<path d="M359.045 864.129C363.293 863.704 373.434 858.369 376.057 855.091C377.6 853.162 384.562 848.575 384.562 847.117" stroke="white" stroke-width="3" stroke-linecap="round"/>
<path d="M356.919 827.98C356.919 832.61 354.801 842.162 359.046 844.992" stroke="white" stroke-width="3" stroke-linecap="round"/>
<path d="M368.614 829.043C368.614 832.587 368.614 836.131 368.614 839.675C368.614 841.414 367.587 848.127 369.677 844.991" stroke="white" stroke-width="3" stroke-linecap="round"/>
</svg>
