<svg width="794" height="499" viewBox="0 0 794 499" fill="none" xmlns="http://www.w3.org/2000/svg">
<path d="M63.6338 21.4844L21.4859 20.66L20.6615 62.808L63.6338 21.4844Z" fill="black"/>
<path d="M771.234 64.1094L773.114 21.9953L731 20.1157L771.234 64.1094Z" fill="black"/>
<path d="M729 476.609L771.152 477.153L771.696 435L729 476.609Z" fill="black"/>
<path d="M22.6914 434.34L21.6833 476.484L63.8273 477.492L22.6914 434.34Z" fill="black"/>
<path fill-rule="evenodd" clip-rule="evenodd" d="M275.283 80.0009C268.131 79.9438 261.248 82.7192 256.136 87.7209C251.024 92.7226 248.1 99.544 248.001 106.695V394.352C247.966 397.947 248.647 401.513 250.004 404.842C251.362 408.171 253.37 411.196 255.909 413.741C258.449 416.286 261.47 418.299 264.797 419.663C268.123 421.027 271.688 421.715 275.283 421.687H519.695C523.29 421.715 526.855 421.027 530.181 419.663C533.508 418.299 536.529 416.286 539.068 413.741C541.608 411.196 543.616 408.171 544.973 404.842C546.331 401.513 547.012 397.947 546.976 394.352V188.273L445.859 80.0009H275.283Z" fill="#5A5858"/>
<path fill-rule="evenodd" clip-rule="evenodd" d="M546.977 188.641V193.98H478.533C478.533 193.98 444.845 187.253 445.806 158.156C445.806 158.156 446.927 188.641 477.839 188.641H546.977Z" fill="#9A9191"/>
<path opacity="0.5" fill-rule="evenodd" clip-rule="evenodd" d="M445.913 80V157.734C445.899 161.943 446.746 166.111 448.403 169.981C450.059 173.851 452.49 177.341 455.546 180.236C458.601 183.132 462.217 185.371 466.17 186.818C470.124 188.264 474.331 188.886 478.534 188.645H546.978L445.913 80Z" fill="#383434"/>
<path d="M324.024 367.541H308.007C306.478 367.541 305.011 366.934 303.93 365.853C302.849 364.771 302.241 363.305 302.241 361.775V309.188C302.241 307.659 302.849 306.192 303.93 305.111C305.011 304.029 306.478 303.422 308.007 303.422H324.024C332.519 303.422 340.667 306.797 346.674 312.804C352.682 318.811 356.057 326.959 356.057 335.455C356.057 343.951 352.682 352.098 346.674 358.106C340.667 364.113 332.519 367.488 324.024 367.488V367.541ZM324.024 310.576H310.089V360.441H324.024C327.32 360.596 330.612 360.056 333.686 358.857C336.76 357.658 339.548 355.827 341.869 353.481C344.189 351.135 345.991 348.327 347.157 345.24C348.323 342.153 348.826 338.856 348.636 335.562C348.868 332.253 348.394 328.932 347.244 325.821C346.094 322.709 344.296 319.878 341.968 317.515C339.64 315.151 336.836 313.311 333.743 312.114C330.649 310.918 327.336 310.394 324.024 310.576ZM401.01 368.716C396.677 368.827 392.368 368.037 388.356 366.395C384.345 364.754 380.718 362.296 377.706 359.179C374.695 356.062 372.364 352.353 370.861 348.287C369.358 344.222 368.716 339.888 368.977 335.562C368.456 331.074 368.89 326.526 370.252 322.218C371.613 317.909 373.87 313.938 376.875 310.564C379.881 307.19 383.565 304.49 387.688 302.641C391.811 300.792 396.278 299.836 400.796 299.836C405.315 299.836 409.782 300.792 413.904 302.641C418.027 304.49 421.712 307.19 424.717 310.564C427.722 313.938 429.979 317.909 431.341 322.218C432.702 326.526 433.137 331.074 432.616 335.562C432.865 339.85 432.23 344.143 430.75 348.176C429.27 352.208 426.977 355.893 424.013 359.003C421.049 362.112 417.478 364.578 413.52 366.249C409.563 367.92 405.305 368.76 401.01 368.716ZM401.01 309.508C386.595 309.508 377.465 320.56 377.465 335.562C377.465 350.564 386.595 361.615 401.01 361.615C415.425 361.615 424.554 350.457 424.554 335.562C424.554 320.666 415.371 309.562 401.01 309.562V309.508ZM499.511 311.537C500.211 312.291 500.593 313.285 500.579 314.313C500.586 314.811 500.495 315.305 500.311 315.768C500.127 316.23 499.854 316.652 499.507 317.009C499.16 317.366 498.746 317.651 498.289 317.848C497.831 318.045 497.34 318.15 496.842 318.157C496.32 318.165 495.804 318.054 495.332 317.832C494.86 317.61 494.445 317.283 494.119 316.876C492.115 314.594 489.653 312.759 486.894 311.49C484.135 310.221 481.14 309.546 478.103 309.508C474.737 309.488 471.402 310.158 468.306 311.478C465.209 312.797 462.416 314.738 460.099 317.18C457.782 319.622 455.991 322.513 454.836 325.675C453.681 328.836 453.187 332.201 453.384 335.562C453.202 338.918 453.707 342.277 454.868 345.432C456.029 348.586 457.821 351.471 460.134 353.91C462.448 356.349 465.235 358.29 468.324 359.614C471.414 360.939 474.741 361.62 478.103 361.615C481.139 361.605 484.138 360.947 486.9 359.686C489.662 358.424 492.123 356.589 494.119 354.301C494.459 353.91 494.877 353.595 495.346 353.374C495.815 353.154 496.324 353.033 496.842 353.02C497.347 353.034 497.844 353.147 498.305 353.353C498.766 353.559 499.182 353.854 499.529 354.221C499.876 354.588 500.148 355.019 500.328 355.491C500.508 355.963 500.593 356.466 500.579 356.97C500.564 357.977 500.185 358.945 499.511 359.693C496.784 362.612 493.474 364.923 489.794 366.478C486.115 368.032 482.15 368.795 478.156 368.716C469.586 368.372 461.482 364.726 455.54 358.541C449.598 352.356 446.28 344.112 446.28 335.535C446.28 326.958 449.598 318.714 455.54 312.529C461.482 306.344 469.586 302.698 478.156 302.354C482.165 302.271 486.145 303.048 489.829 304.632C493.512 306.216 496.814 308.57 499.511 311.537Z" fill="#9A9191"/>
</svg>
