<svg width="360" height="396" viewBox="0 0 360 396" fill="none" xmlns="http://www.w3.org/2000/svg">
<path fill-rule="evenodd" clip-rule="evenodd" d="M113.272 5.27203C116.648 1.89648 121.226 0 126 0H270C299.825 0 324 24.1767 324 54.0001V126C324 135.941 315.942 144 306 144C296.059 144 288 135.941 288 126V54.0001C288 44.059 279.942 36 270 36H144V126C144 135.941 135.942 144 126 144H36V342C36 351.942 44.059 360 54.0001 360H126C135.942 360 144 368.059 144 378C144 387.942 135.942 396 126 396H54.0001C24.1767 396 0 371.825 0 342V126C0 121.226 1.89648 116.648 5.27203 113.272L113.272 5.27203ZM61.4559 108H108V61.4559L61.4559 108ZM309.089 319.634C318.512 305.406 324 288.344 324 270C324 220.295 283.706 180 234 180C184.295 180 144 220.295 144 270C144 319.706 184.295 360 234 360C252.344 360 269.406 354.512 283.634 345.089L329.273 390.728C336.302 397.757 347.699 397.757 354.728 390.728C361.757 383.699 361.757 372.302 354.728 365.273L309.089 319.634ZM180 270C180 240.176 204.176 216 234 216C263.825 216 288 240.176 288 270C288 299.825 263.825 324 234 324C204.176 324 180 299.825 180 270Z" fill="white"/>
</svg>
