<svg width="838" height="1038" viewBox="0 0 838 1038" fill="none" xmlns="http://www.w3.org/2000/svg">
<path d="M457.593 998.886C542.711 998.886 714.759 1022.89 759.11 939.114C827.886 809.205 828.181 613.411 828.181 470.234C828.181 391.645 828.181 313.055 828.181 234.466C828.181 208.357 843.244 124.649 825.524 104.96C806.902 84.2683 768.116 74.2794 744.5 63.7832C593.579 -3.29261 422.002 6.66758 257.024 6.66758C202.979 6.66758 115.282 -10.2715 75.715 35.8895C28.5567 90.9075 15.2787 132.564 15.2787 212.55C15.2787 298.788 3.32422 381.155 3.32422 466.914C3.32422 548.047 27.2331 621.974 27.2331 702.682C27.2331 814.341 41.1872 1014.94 182.641 1022.8C236.586 1025.79 287.716 1034.75 344.026 1034.75C415.951 1034.75 483.136 1010.84 553.228 1010.84" stroke="white" stroke-width="6" stroke-linecap="round"/>
</svg>
