<svg width="822" height="971" viewBox="0 0 822 971" fill="none" xmlns="http://www.w3.org/2000/svg">
<path d="M620.642 3.08594C453.135 3.08594 278.011 31.6048 137.921 130.046C36.2196 201.512 9.60258 357.363 9.60258 473.586C9.60258 590.712 3.49219 708.197 3.49219 824.594C3.49219 853.272 23.5843 897.334 46.2649 913.534C60.3912 923.624 78.5362 926.674 95.148 930.507C157.434 944.881 225.736 954.08 289.323 961.059C363.477 969.198 457.496 973.127 528.986 950.196C578.251 934.394 636.536 916.1 687.856 913.534C849.06 905.474 816.174 651.354 816.174 547.25C816.174 401.31 813.495 258.136 767.291 119.523C756.659 87.6262 717.388 64.3591 687.516 55.0243C637.338 39.3435 588.479 21.4171 535.096 21.4171" stroke="white" stroke-width="6" stroke-linecap="round"/>
</svg>
