<svg width="574" height="732" viewBox="0 0 574 732" fill="none" xmlns="http://www.w3.org/2000/svg">
<path d="M570.938 34.9648C513.865 16.1365 462.857 3.88672 401.951 3.88672C310.404 3.88672 164.154 8.39985 92.1407 75.2693C51.7221 112.801 106.466 132.566 103.795 169.96C99.6712 227.694 7.82901 230.45 3.76232 289.417C0.562743 335.811 39.9281 399.46 53.2931 441.894C72.476 502.8 82.6 566.667 103.795 626.906C111.907 649.962 137.469 708 160.124 708" stroke="white" stroke-width="6" stroke-linecap="round"/>
<path d="M21.9688 658.802C61.0553 680.367 98.6922 700.431 136.803 723.151C165.923 740.511 165.037 711.237 168.046 687.356C171.96 656.3 172.913 622.131 189.565 595.488" stroke="white" stroke-width="6" stroke-linecap="round"/>
</svg>
