<svg width="22" height="22" viewBox="0 0 22 22" fill="none" xmlns="http://www.w3.org/2000/svg">
<path d="M0.615009 0.615009C1.00892 0.221219 1.5431 0 2.10009 0C2.65708 0 3.19126 0.221219 3.58517 0.615009L11.0127 8.04252L18.4402 0.615009C18.8364 0.232379 19.367 0.0206566 19.9177 0.0254425C20.4685 0.0302284 20.9953 0.25114 21.3848 0.640597C21.7742 1.03005 21.9951 1.5569 21.9999 2.10765C22.0047 2.65841 21.793 3.18901 21.4104 3.58517L13.9828 11.0127L21.4104 18.4402C21.793 18.8364 22.0047 19.367 21.9999 19.9177C21.9951 20.4685 21.7742 20.9953 21.3848 21.3848C20.9953 21.7742 20.4685 21.9951 19.9177 21.9999C19.367 22.0047 18.8364 21.793 18.4402 21.4104L11.0127 13.9828L3.58517 21.4104C3.18901 21.793 2.65841 22.0047 2.10765 21.9999C1.5569 21.9951 1.03005 21.7742 0.640597 21.3848C0.25114 20.9953 0.0302284 20.4685 0.0254425 19.9177C0.0206566 19.367 0.232379 18.8364 0.615009 18.4402L8.04252 11.0127L0.615009 3.58517C0.221219 3.19126 0 2.65708 0 2.10009C0 1.5431 0.221219 1.00892 0.615009 0.615009Z" fill="#7094D1"/>
</svg>
