<svg width="512" height="480" viewBox="0 0 512 480" fill="none" xmlns="http://www.w3.org/2000/svg">
<path d="M512 360V0H0V360H206.789L184.289 450H121V480H391V450H327.711L305.211 360H512ZM30 30H482V330H30V30ZM296.789 450H215.211L237.711 360H274.289L296.789 450Z" fill="#74BEFB"/>
<path d="M187.213 147.426L208.426 126.213L187.213 105L208.426 83.7872L187.213 62.5742L166 83.7872L144.787 62.5742L123.574 83.7872L144.787 105L123.574 126.213L144.787 147.426L166 126.213L187.213 147.426Z" fill="#74BEFB"/>
<path d="M367.213 62.5742L346 83.7872L324.787 62.5742L303.574 83.7872L324.787 105L303.574 126.213L324.787 147.426L346 126.213L367.213 147.426L388.426 126.213L367.213 105L388.426 83.7872L367.213 62.5742Z" fill="#74BEFB"/>
<path d="M256 180C198.103 180 151 227.103 151 285V300H181V285C181 243.645 214.645 210 256 210C297.355 210 331 243.645 331 285V300H361V285C361 227.103 313.897 180 256 180Z" fill="#74BEFB"/>
</svg>
