<svg width="18" height="18" viewBox="0 0 18 18" fill="none" xmlns="http://www.w3.org/2000/svg">
<path d="M14.9424 7.09442L13.4506 5.60271C13.3666 5.51867 13.2285 5.51867 13.1415 5.60271L5.06722 13.7966C4.98318 13.8837 4.84511 13.8837 4.75806 13.7966L3.66548 12.7041C3.58144 12.6201 3.58144 12.485 3.66248 12.401L11.6707 4.123C11.7517 4.03896 11.7517 3.9039 11.6707 3.81986L10.6952 2.81137C10.6111 2.72433 10.4701 2.72433 10.386 2.81137C7.35143 5.89985 4.31683 8.98533 1.28223 12.0738C1.25521 12.1008 1.2342 12.1368 1.2252 12.1759L0.123618 16.9061C0.0365721 17.2183 -0.104502 17.5964 0.123618 17.8246C0.300711 18.0016 0.585862 18.0497 0.840996 17.9446L6.13579 16.4049C6.17181 16.3959 6.20482 16.3749 6.23184 16.3478C9.13737 13.3644 12.0399 10.384 14.9454 7.40057C15.0265 7.31353 15.0265 7.17846 14.9424 7.09442Z" fill="black"/>
<path d="M17.7696 3.84536C17.7366 3.45817 17.5625 3.17904 17.4694 3.04998C17.4574 3.03197 17.4424 3.01996 17.4274 3.00496L14.4736 0.165599C14.4376 0.129582 14.3926 0.102569 14.3445 0.0845601C14.1944 0.0335357 13.9423 -0.026493 13.6391 0.0125256C13.3539 0.0485428 13.1408 0.153593 13.0147 0.23163C12.9907 0.246638 12.9697 0.264646 12.9487 0.285656L11.6699 1.54926C11.5228 1.69333 11.5228 1.93044 11.6699 2.07451L15.7194 6.10544C15.8635 6.24951 16.0946 6.24951 16.2387 6.10844L17.4544 4.92587C17.5295 4.82082 17.8177 4.41263 17.7696 3.84536Z" fill="black"/>
</svg>
