<svg width="50" height="50" viewBox="0 0 50 50" fill="none" xmlns="http://www.w3.org/2000/svg">
<path fill-rule="evenodd" clip-rule="evenodd" d="M48.1496 9.36373C48.8119 6.13504 45.6406 3.45194 42.5662 4.63979L4.88041 19.2002C1.44711 20.5267 1.29413 25.3277 4.63599 26.87L12.8429 30.6579L16.7471 44.3223C16.9498 45.0321 17.5131 45.5817 18.2276 45.7669C18.9422 45.9519 19.7014 45.7452 20.2234 45.2231L26.2373 39.2092L34.6617 45.5275C37.1071 47.3615 40.6292 46.0256 41.2433 43.0312L48.1496 9.36373ZM6.38208 23.0869L44.0679 8.52646L37.1617 42.1942L27.2919 34.7917C26.4625 34.1696 25.3019 34.2521 24.5687 34.9852L21.9929 37.561L22.7669 33.3046L37.9317 18.1399C38.6698 17.4018 38.7477 16.2316 38.1142 15.4021C37.4806 14.5727 36.3312 14.34 35.425 14.8579L14.482 26.8252L6.38208 23.0869ZM17.0355 30.165L18.2988 34.5867L18.7838 31.919C18.8596 31.5021 19.0608 31.1181 19.3604 30.8185L23.9852 26.194L17.0355 30.165Z" fill="white"/>
</svg>
