<svg width="50" height="50" viewBox="0 0 50 50" fill="none" xmlns="http://www.w3.org/2000/svg">
<g clip-path="url(#clip0_35_794)">
<path d="M32.3782 0.961426H17.6201C4.15257 0.961426 0.959961 4.15403 0.959961 17.6216V32.3797C0.959961 45.8472 4.15257 49.0398 17.6201 49.0398H32.3782C45.8458 49.0398 49.0384 45.8472 49.0384 32.3797V17.6216C49.0384 4.15403 45.8142 0.961426 32.3782 0.961426ZM39.7731 35.2583H36.283C34.9609 35.2583 34.5537 34.2096 32.1754 31.7998C30.1096 29.7971 29.1946 29.5311 28.6853 29.5311C27.9657 29.5311 27.7613 29.734 27.7613 30.721V33.8746C27.7613 34.7204 27.4954 35.2283 25.2568 35.2283C21.5549 35.2283 17.4473 32.9897 14.5672 28.819C10.2238 22.7072 9.03538 18.1294 9.03538 17.1829C9.03538 16.6736 9.2382 16.1973 10.2163 16.1973H13.7139C14.5988 16.1973 14.9353 16.6045 15.2794 17.551C17.0086 22.5435 19.8887 26.917 21.0771 26.917C21.5159 26.917 21.7187 26.7141 21.7187 25.5948V20.4386C21.585 18.0603 20.3335 17.856 20.3335 17.0116C20.3335 16.6045 20.67 16.1973 21.2094 16.1973H26.7097C27.4533 16.1973 27.7268 16.6045 27.7268 17.4804V24.4365C27.7268 25.1877 28.0633 25.4536 28.2661 25.4536C28.7048 25.4536 29.0805 25.1877 29.8933 24.3734C32.4053 21.5564 34.2052 17.2129 34.2052 17.2129C34.4395 16.7036 34.8467 16.2274 35.7316 16.2274H39.2292C40.2779 16.2274 40.5122 16.7667 40.2779 17.5179C39.8392 19.5522 35.5588 25.5933 35.5588 25.5933C35.1907 26.2033 35.0495 26.4692 35.5588 27.1498C35.9344 27.6591 37.1559 28.7153 37.9687 29.6618C39.4636 31.3596 40.6129 32.7838 40.9194 33.7694C41.2634 34.7475 40.7556 35.2568 39.7686 35.2568L39.7731 35.2583Z" fill="white" stroke="white" stroke-width="0.000615385"/>
</g>
<defs>
<clipPath id="clip0_35_794">
<rect width="50" height="50" fill="white"/>
</clipPath>
</defs>
</svg>
