<svg width="50" height="50" viewBox="0 0 50 50" fill="none" xmlns="http://www.w3.org/2000/svg">
<g clip-path="url(#clip0_35_797)">
<path fill-rule="evenodd" clip-rule="evenodd" d="M19.9711 31.4653V17.4357C24.9516 19.7793 28.809 22.0433 33.3711 24.4841C29.6084 26.5709 24.9516 28.9123 19.9711 31.4653ZM47.7275 10.4582C46.8684 9.32631 45.4041 8.44522 43.8452 8.15352C39.2632 7.2834 10.6775 7.28092 6.09788 8.15352C4.84777 8.38787 3.73459 8.95433 2.77833 9.83443C-1.25091 13.5742 0.0116654 33.6293 0.982868 36.8779C1.39127 38.284 1.91923 39.2982 2.58413 39.9638C3.44077 40.8439 4.61367 41.4499 5.9609 41.7216C9.73364 42.502 29.1701 42.9383 43.7655 41.8388C45.1102 41.6045 46.3006 40.979 47.2394 40.0615C50.9648 36.3367 50.7109 15.1553 47.7275 10.4582Z" fill="white"/>
</g>
<defs>
<clipPath id="clip0_35_797">
<rect width="50" height="50" fill="white"/>
</clipPath>
</defs>
</svg>
